<mxfile host="app.diagrams.net" agent="Mozilla/5.0 (Windows NT 10.0; Win64; x64) AppleWebKit/537.36 (KHTML, like Gecko) Chrome/140.0.0.0 Safari/537.36 Edg/140.0.0.0" version="28.2.0">
  <diagram name="Page-1" id="eMzpdcfxDRXU5S7EZunc">
    <mxGraphModel dx="3366" dy="2006" grid="0" gridSize="10" guides="1" tooltips="1" connect="1" arrows="1" fold="1" page="0" pageScale="1" pageWidth="1920" pageHeight="1200" math="0" shadow="0">
      <root>
        <mxCell id="0" />
        <mxCell id="1" parent="0" />
        <mxCell id="153Gl87On8ET4E9MDmV--1" value="Game" style="rounded=0;whiteSpace=wrap;html=1;align=left;verticalAlign=top;fontSize=22;textShadow=0;" vertex="1" parent="1">
          <mxGeometry x="-939" y="-447" width="426" height="371" as="geometry" />
        </mxCell>
        <mxCell id="153Gl87On8ET4E9MDmV--17" style="edgeStyle=orthogonalEdgeStyle;rounded=0;orthogonalLoop=1;jettySize=auto;html=1;exitX=0;exitY=0.5;exitDx=0;exitDy=0;dashed=1;dashPattern=12 12;" edge="1" parent="1">
          <mxGeometry relative="1" as="geometry">
            <mxPoint x="-368.99999999999955" y="-137" as="sourcePoint" />
            <mxPoint x="-663" y="-137" as="targetPoint" />
          </mxGeometry>
        </mxCell>
        <mxCell id="153Gl87On8ET4E9MDmV--4" value="Screen" style="rounded=0;whiteSpace=wrap;html=1;align=center;verticalAlign=middle;fontSize=20;" vertex="1" parent="1">
          <mxGeometry x="-369" y="-192.25" width="128" height="70.5" as="geometry" />
        </mxCell>
        <mxCell id="153Gl87On8ET4E9MDmV--18" style="edgeStyle=orthogonalEdgeStyle;rounded=0;orthogonalLoop=1;jettySize=auto;html=1;exitX=0.5;exitY=1;exitDx=0;exitDy=0;" edge="1" parent="1" source="153Gl87On8ET4E9MDmV--6" target="153Gl87On8ET4E9MDmV--15">
          <mxGeometry relative="1" as="geometry" />
        </mxCell>
        <mxCell id="153Gl87On8ET4E9MDmV--6" value="Keyboard" style="rounded=0;whiteSpace=wrap;html=1;align=center;verticalAlign=middle;fontSize=20;" vertex="1" parent="1">
          <mxGeometry x="-822.75" y="-602" width="199.5" height="59" as="geometry" />
        </mxCell>
        <mxCell id="153Gl87On8ET4E9MDmV--12" value="" style="shape=singleArrow;direction=south;whiteSpace=wrap;html=1;" vertex="1" parent="1">
          <mxGeometry x="-733" y="-763" width="22" height="161" as="geometry" />
        </mxCell>
        <mxCell id="153Gl87On8ET4E9MDmV--13" value="Listener" style="text;html=1;align=center;verticalAlign=middle;whiteSpace=wrap;rounded=0;fontSize=20;" vertex="1" parent="1">
          <mxGeometry x="-724" y="-698" width="119" height="53" as="geometry" />
        </mxCell>
        <mxCell id="153Gl87On8ET4E9MDmV--19" style="edgeStyle=orthogonalEdgeStyle;rounded=0;orthogonalLoop=1;jettySize=auto;html=1;exitX=0.5;exitY=1;exitDx=0;exitDy=0;" edge="1" parent="1" source="153Gl87On8ET4E9MDmV--15" target="153Gl87On8ET4E9MDmV--16">
          <mxGeometry relative="1" as="geometry" />
        </mxCell>
        <mxCell id="153Gl87On8ET4E9MDmV--23" style="edgeStyle=orthogonalEdgeStyle;rounded=0;orthogonalLoop=1;jettySize=auto;html=1;exitX=1;exitY=0.5;exitDx=0;exitDy=0;entryX=1;entryY=0.25;entryDx=0;entryDy=0;dashed=1;" edge="1" parent="1" source="153Gl87On8ET4E9MDmV--15" target="153Gl87On8ET4E9MDmV--16">
          <mxGeometry relative="1" as="geometry">
            <Array as="points">
              <mxPoint x="-601" y="-293" />
              <mxPoint x="-601" y="-172" />
            </Array>
          </mxGeometry>
        </mxCell>
        <mxCell id="153Gl87On8ET4E9MDmV--15" value="Update" style="rounded=0;whiteSpace=wrap;html=1;fontSize=20;" vertex="1" parent="1">
          <mxGeometry x="-783" y="-323" width="120" height="60" as="geometry" />
        </mxCell>
        <mxCell id="153Gl87On8ET4E9MDmV--24" style="edgeStyle=orthogonalEdgeStyle;rounded=0;orthogonalLoop=1;jettySize=auto;html=1;exitX=0;exitY=0.25;exitDx=0;exitDy=0;entryX=0;entryY=0.5;entryDx=0;entryDy=0;dashed=1;" edge="1" parent="1" source="153Gl87On8ET4E9MDmV--16" target="153Gl87On8ET4E9MDmV--15">
          <mxGeometry relative="1" as="geometry">
            <Array as="points">
              <mxPoint x="-852" y="-172" />
              <mxPoint x="-852" y="-293" />
            </Array>
          </mxGeometry>
        </mxCell>
        <mxCell id="153Gl87On8ET4E9MDmV--31" style="edgeStyle=orthogonalEdgeStyle;rounded=0;orthogonalLoop=1;jettySize=auto;html=1;exitX=1;exitY=0.5;exitDx=0;exitDy=0;entryX=0;entryY=0.5;entryDx=0;entryDy=0;dashed=1;dashPattern=12 12;" edge="1" parent="1" source="153Gl87On8ET4E9MDmV--16" target="153Gl87On8ET4E9MDmV--4">
          <mxGeometry relative="1" as="geometry" />
        </mxCell>
        <mxCell id="153Gl87On8ET4E9MDmV--16" value="Render" style="rounded=0;whiteSpace=wrap;html=1;fontSize=20;" vertex="1" parent="1">
          <mxGeometry x="-783" y="-187" width="120" height="60" as="geometry" />
        </mxCell>
        <mxCell id="153Gl87On8ET4E9MDmV--28" style="edgeStyle=orthogonalEdgeStyle;rounded=0;orthogonalLoop=1;jettySize=auto;html=1;exitX=0.5;exitY=1;exitDx=0;exitDy=0;" edge="1" parent="1" source="153Gl87On8ET4E9MDmV--25" target="153Gl87On8ET4E9MDmV--26">
          <mxGeometry relative="1" as="geometry" />
        </mxCell>
        <mxCell id="153Gl87On8ET4E9MDmV--25" value="SpriteSheet" style="rounded=0;whiteSpace=wrap;html=1;align=center;verticalAlign=middle;fontSize=20;" vertex="1" parent="1">
          <mxGeometry x="-369" y="-537" width="128" height="70.5" as="geometry" />
        </mxCell>
        <mxCell id="153Gl87On8ET4E9MDmV--27" style="edgeStyle=orthogonalEdgeStyle;rounded=0;orthogonalLoop=1;jettySize=auto;html=1;exitX=0.5;exitY=1;exitDx=0;exitDy=0;entryX=0.5;entryY=0;entryDx=0;entryDy=0;" edge="1" parent="1" source="153Gl87On8ET4E9MDmV--26" target="153Gl87On8ET4E9MDmV--4">
          <mxGeometry relative="1" as="geometry" />
        </mxCell>
        <mxCell id="153Gl87On8ET4E9MDmV--26" value="Sprite" style="rounded=0;whiteSpace=wrap;html=1;align=center;verticalAlign=middle;fontSize=20;" vertex="1" parent="1">
          <mxGeometry x="-369" y="-357" width="128" height="70.5" as="geometry" />
        </mxCell>
        <mxCell id="153Gl87On8ET4E9MDmV--29" value="" style="shape=singleArrow;direction=south;whiteSpace=wrap;html=1;" vertex="1" parent="1">
          <mxGeometry x="-316" y="-698" width="22" height="161" as="geometry" />
        </mxCell>
        <mxCell id="153Gl87On8ET4E9MDmV--30" value="ReadImage" style="text;html=1;align=center;verticalAlign=middle;whiteSpace=wrap;rounded=0;fontSize=20;" vertex="1" parent="1">
          <mxGeometry x="-294" y="-638" width="119" height="53" as="geometry" />
        </mxCell>
      </root>
    </mxGraphModel>
  </diagram>
</mxfile>
